<svg width="1400" height="1558" viewBox="0 0 1400 1558" fill="none" xmlns="http://www.w3.org/2000/svg">
<path d="M103.017 1375.94C72.0247 1383.24 44.6643 1341.54 34.8582 1319.77L-37.409 1552.31L23.8735 1571.36C32.2685 1573.97 125.111 1586.25 167.618 1570.92C201.624 1558.66 235.34 1537.65 247.947 1528.68C273.058 1516.6 282.935 1490.15 284.735 1478.44C289.11 1470.29 302.974 1451.15 323.429 1439.83C343.885 1428.51 373.276 1434.46 385.415 1438.84C383.101 1434.44 404.576 1451.24 415.603 1460.19C436.051 1470.23 429.577 1486.32 423.784 1493.11C412.999 1505.1 392.333 1516.11 383.421 1504.5C374.508 1492.9 382.036 1491.19 387.595 1491.07C387.595 1491.07 393.32 1491.56 394.629 1495.1C396.18 1499.3 378.713 1500.89 387.561 1503.03C396.41 1505.17 415.267 1506.3 413.188 1491.66C411.109 1477.02 390.854 1473.67 382.331 1478.39C335.455 1513.9 360.336 1531.39 383.785 1535.92C445.975 1531.31 445.578 1511.85 458.612 1496.57C469.039 1484.35 459.015 1452.82 452.699 1438.58C434.85 1404.19 381.142 1335.88 309.11 1337.8C219.069 1340.2 141.758 1366.8 103.017 1375.94Z" fill="url(#paint0_linear_105_2394)"/>
<path d="M76.9717 1421.24C57.0827 1412.76 -4.38009 1340.79 -49.0177 1286.38C-54.2322 1280.03 -57.8148 1282.69 -52.9854 1289.34C-8.90982 1350.06 51.8007 1431.75 57.8001 1435.53C69.349 1442.8 105.504 1456.8 133.411 1461.79C161.319 1466.78 199.742 1455.71 218.131 1443.93C232.507 1434.72 250.119 1421.89 257.643 1416.25C257.987 1415.99 258.286 1415.71 258.592 1415.41C265.959 1408.16 294.361 1399.21 308.783 1395.32C309.413 1395.15 310.003 1394.89 310.573 1394.57C322.763 1387.77 341.662 1391.12 350.93 1394.04C351.812 1394.32 352.726 1394.43 353.635 1394.6C360.561 1395.89 381.988 1406.55 385.63 1408.53C388.779 1410.25 398.846 1420.31 403.486 1425.13C407.8 1429.61 417.273 1447.36 418.583 1449.83C418.687 1450.03 418.796 1450.21 418.919 1450.4L431.564 1469.54C432.183 1470.48 432.557 1471.55 432.652 1472.67L434.915 1499.37C434.996 1500.33 435.935 1500.97 436.857 1500.7C437.578 1500.49 438.037 1499.78 437.965 1499.03C437.393 1493.05 436.877 1477.16 436.707 1471.52C436.667 1470.19 436.244 1468.93 435.483 1467.84C431.817 1462.6 420.538 1446.28 416.828 1438.48L400.856 1412C400.568 1411.53 400.229 1411.09 399.83 1410.71C380.726 1392.07 347.994 1372.03 330.086 1371.02C311.992 1370 254.953 1381.73 241.022 1393.97C227.092 1406.21 230.393 1404.47 194.863 1421.05C159.333 1437.63 116.802 1438.22 76.9717 1421.24Z" fill="#FFFB29"/>
<g filter="url(#filter0_f_105_2394)">
<rect width="85.0547" height="19.3402" rx="9.6701" transform="matrix(-0.981049 -0.193757 -0.193757 0.981049 153.53 1395.64)" fill="#FBFBFB"/>
</g>
<g filter="url(#filter1_f_105_2394)">
<ellipse rx="7.9119" ry="7.0328" transform="matrix(-0.954948 -0.296772 -0.296772 0.954948 104.12 1375.36)" fill="#84D718"/>
</g>
<g filter="url(#filter2_f_105_2394)">
<ellipse rx="7.9119" ry="7.0328" transform="matrix(-0.954948 -0.296772 -0.296772 0.954948 106.522 1302.46)" fill="#84D718"/>
</g>
<g filter="url(#filter3_f_105_2394)">
<ellipse rx="7.9119" ry="7.0328" transform="matrix(-0.954948 -0.296772 -0.296772 0.954948 160.266 1129.52)" fill="#84D718"/>
</g>
<g filter="url(#filter4_f_105_2394)">
<ellipse rx="7.9119" ry="7.0328" transform="matrix(-0.954948 -0.296772 -0.296772 0.954948 177.553 1050.2)" fill="#008E3F"/>
</g>
<g filter="url(#filter5_f_105_2394)">
<ellipse rx="3.80856" ry="3.38538" transform="matrix(-0.844345 0.5358 0.5358 0.844345 241.032 1089.6)" fill="#008E3F"/>
</g>
<g filter="url(#filter6_f_105_2394)">
<ellipse rx="5.35256" ry="4.75783" transform="matrix(-0.844345 0.5358 0.5358 0.844345 372.071 603.342)" fill="#008E3F"/>
</g>
<g filter="url(#filter7_f_105_2394)">
<ellipse rx="5.35256" ry="4.75783" transform="matrix(0.0589695 0.99826 0.99826 -0.0589695 1087.97 560.781)" fill="#008E3F"/>
</g>
<g filter="url(#filter8_f_105_2394)">
<ellipse rx="3.80856" ry="3.38538" transform="matrix(-0.844345 0.5358 0.5358 0.844345 283.291 1098.06)" fill="#F7A229"/>
</g>
<g filter="url(#filter9_f_105_2394)">
<ellipse rx="5.35256" ry="4.75783" transform="matrix(-0.844345 0.5358 0.5358 0.844345 431.461 615.241)" fill="#F7A229"/>
</g>
<g filter="url(#filter10_f_105_2394)">
<ellipse rx="5.35256" ry="4.75783" transform="matrix(0.0589695 0.99826 0.99826 -0.0589695 1127.18 514.618)" fill="#F7A229"/>
</g>
<g filter="url(#filter11_f_105_2394)">
<ellipse rx="7.0328" ry="6.25138" transform="matrix(-0.954948 -0.296772 -0.296772 0.954948 295.573 932.608)" fill="#F7A229"/>
</g>
<g filter="url(#filter12_f_105_2394)">
<ellipse rx="9.88393" ry="8.78571" transform="matrix(-0.954948 -0.296772 -0.296772 0.954948 448.724 382.71)" fill="#F7A229"/>
</g>
<g filter="url(#filter13_f_105_2394)">
<ellipse rx="9.88393" ry="8.78571" transform="matrix(-0.722742 0.691118 0.691118 0.722742 932.216 386.728)" fill="#F7A229"/>
</g>
<g filter="url(#filter14_f_105_2394)">
<ellipse rx="6.77077" ry="6.01846" transform="matrix(-0.844345 0.5358 0.5358 0.844345 353.002 1044.11)" fill="#F7A229"/>
</g>
<g filter="url(#filter15_f_105_2394)">
<ellipse rx="9.51567" ry="8.45837" transform="matrix(-0.844345 0.5358 0.5358 0.844345 529.434 539.42)" fill="#F7A229"/>
</g>
<g filter="url(#filter16_f_105_2394)">
<ellipse rx="9.51567" ry="8.45837" transform="matrix(0.0589695 0.99826 0.99826 -0.0589695 1108.41 392.164)" fill="#F7A229"/>
</g>
<g filter="url(#filter17_f_105_2394)">
<ellipse rx="5.41661" ry="4.81477" transform="matrix(-0.844345 0.5358 0.5358 0.844345 303.788 1014.58)" fill="#F7EF29"/>
</g>
<g filter="url(#filter18_f_105_2394)">
<ellipse rx="7.61253" ry="6.7667" transform="matrix(-0.844345 0.5358 0.5358 0.844345 460.269 497.911)" fill="#F7EF29"/>
</g>
<g filter="url(#filter19_f_105_2394)">
<ellipse rx="7.61253" ry="6.7667" transform="matrix(0.0589695 0.99826 0.99826 -0.0589695 1038.56 432.513)" fill="#F7EF29"/>
</g>
<g filter="url(#filter20_f_105_2394)">
<ellipse rx="5.41661" ry="4.81477" transform="matrix(-0.844345 0.5358 0.5358 0.844345 268.388 1001.76)" fill="#F79F26"/>
</g>
<g filter="url(#filter21_f_105_2394)">
<ellipse rx="6.77077" ry="6.01846" transform="matrix(-0.844345 0.5358 0.5358 0.844345 387.261 974.26)" fill="#F7A229"/>
</g>
<g filter="url(#filter22_f_105_2394)">
<ellipse rx="4.3955" ry="3.90711" transform="matrix(-0.954948 -0.296772 -0.296772 0.954948 493.011 1036.34)" fill="#008E3F"/>
</g>
<g filter="url(#filter23_f_105_2394)">
<ellipse rx="7.9119" ry="7.0328" transform="matrix(-0.954948 -0.296772 -0.296772 0.954948 121.344 1456.2)" fill="#84D718"/>
</g>
<g filter="url(#filter24_f_105_2394)">
<ellipse rx="7.9119" ry="7.0328" transform="matrix(-0.954948 -0.296772 -0.296772 0.954948 156.24 1503.87)" fill="#84D718"/>
</g>
<path d="M425.615 1416.93L436.111 1361.62L410.962 1409.96L425.615 1416.93Z" fill="#BD7531"/>
<path d="M343.96 1356L344.379 1322.07L331.686 1354.02L343.96 1356Z" fill="#BD7531"/>
<path d="M402.891 1246.35C382.862 1310.8 394.103 1360.53 444.472 1376.19C460.7 1381.23 514.299 1320.34 534.327 1255.9C544.977 1192.01 533.228 1147.85 517 1142.81C500.773 1137.76 422.919 1181.9 402.891 1246.35Z" fill="#008E3F"/>
<path d="M402.594 1247.31C384.007 1307.11 392.521 1352.68 435.301 1365.97C449.083 1370.25 496.336 1312.98 514.924 1253.17C525.469 1194.08 516.393 1153.66 502.611 1149.38C488.829 1145.1 421.181 1187.5 402.594 1247.31Z" fill="white" fill-opacity="0.2"/>
<ellipse rx="19.3402" ry="18.4611" transform="matrix(-0.954948 -0.296772 -0.296772 0.954948 413.057 1308.43)" fill="#C6DB6B"/>
<ellipse rx="11.4283" ry="10.5492" transform="matrix(-0.954948 -0.296772 -0.296772 0.954948 518.907 1154.45)" fill="#C6DB6B"/>
<circle r="9.6701" transform="matrix(-0.954948 -0.296772 -0.296772 0.954948 491.037 1273.74)" fill="#C6DB6B"/>
<circle r="7.0328" transform="matrix(-0.954948 -0.296772 -0.296772 0.954948 424.524 1230.06)" fill="#F4FFC7"/>
<circle r="5.2746" transform="matrix(-0.954948 -0.296772 -0.296772 0.954948 468.653 1212.47)" fill="#C6DB6B"/>
<circle r="4.3955" transform="matrix(-0.954948 -0.296772 -0.296772 0.954948 482.328 1337.32)" fill="#C6DB6B"/>
<path d="M376.5 1231.14C377.694 1298.61 366.518 1337.3 327.487 1337.99C314.913 1338.21 267.208 1296.75 266.014 1229.27C271.384 1165 303.681 1099.66 316.256 1099.44C328.83 1099.21 375.306 1163.66 376.5 1231.14Z" fill="#F79F26"/>
<path d="M340.085 1124.34C336.81 1126.19 334.31 1128.57 330.496 1129.19C328.594 1129.5 326.269 1129.92 324.434 1129.35C320.98 1128.28 318.883 1125.33 316.223 1123.11C313.404 1120.75 308.261 1121.17 305.273 1122.95C303.765 1123.85 301.855 1124.38 300.473 1125.47C299.755 1126.04 297.997 1126.97 297.146 1126.71" stroke="#F7EF29" stroke-width="2.01355" stroke-linecap="round"/>
<path d="M368.779 1188.03C365.156 1191.92 363.557 1198.69 358.686 1201.4C353.533 1204.27 344.683 1206.85 339.086 1204.12C331.079 1200.21 325.069 1188.2 314.734 1189.22C305.774 1190.1 302.756 1197.88 297.329 1203.49C294.806 1206.1 288.964 1211.58 284.916 1211C283.31 1210.77 281.346 1210.22 280.204 1208.99C279.57 1208.31 279.201 1207.33 278.243 1207.03C275.91 1206.31 273.646 1206.05 271.36 1205.34" stroke="#F7EF29" stroke-width="2.01355" stroke-linecap="round"/>
<path d="M376.3 1237.51C373.21 1242.17 368.653 1249.4 362.115 1248.24C356.622 1247.27 351.948 1244.01 347.17 1241.35C346.657 1241.07 345.172 1239.84 344.495 1239.85C341.783 1239.87 338.544 1242.71 336.647 1244.39C333.897 1246.83 333.629 1249.63 332.2 1252.76C330.938 1255.53 328.481 1257.62 325.709 1258.8C322.65 1260.11 316.885 1261.43 313.938 1259.03C308.956 1254.98 306.087 1244.22 298.313 1250.16C295.738 1252.13 293.722 1254.48 292.45 1257.47C291.478 1259.75 290.606 1262.51 288.762 1264.28C285.042 1267.84 279.858 1268.6 275.109 1267.12C272.299 1266.25 271.794 1266.07 272.679 1263.22" stroke="#F7EF29" stroke-width="2.01355" stroke-linecap="round"/>
<path d="M370.333 1297.16C367.004 1296.47 363.495 1295.46 360.267 1297.13C355.65 1299.51 351.984 1303.81 348.117 1307.17C346.22 1308.82 344.447 1310.54 341.773 1310.09C338.102 1309.47 334.156 1307.26 331.125 1305.18C329.468 1304.04 328.137 1300.98 325.972 1300.74C321.013 1300.17 315.876 1303.63 312.93 1307.31C311.375 1309.25 310.215 1311.23 308.027 1312.57C306.456 1313.53 304.527 1313.49 302.763 1313.78C301.843 1313.93 299.641 1313.96 299.459 1312.85" stroke="#F7EF29" stroke-width="2.01355" stroke-linecap="round"/>
<path d="M374.719 1272.93C369.205 1276.75 363.814 1281.98 356.872 1279.96C354.83 1279.36 352.807 1278.7 350.776 1278.06C348.679 1277.41 345.165 1280.02 343.345 1280.87C338.075 1283.33 332.984 1287.75 326.952 1286.82C323.746 1286.33 320.85 1285.54 318.077 1283.84C314.857 1281.87 312.318 1281.21 308.703 1282.3C304.115 1283.68 301.163 1286.65 297.821 1289.87C296.16 1291.47 294.033 1291.18 292.019 1291.68C289.921 1292.2 287.889 1292.98 285.77 1293.33" stroke="#FE2929" stroke-width="0.671184" stroke-linecap="round"/>
<path d="M374.118 1217.08C370.476 1217.41 367.182 1219.15 363.493 1219.16C361.023 1219.17 358.577 1219.51 356.113 1219.31C352.495 1219.02 348.562 1218.56 344.969 1218.89C341.006 1219.25 335.744 1221.88 332.449 1224.1C329.353 1226.2 326.882 1228.87 324.114 1231.34C320.007 1235.01 315.663 1234.09 310.495 1235.12C304.963 1236.21 297.417 1233.56 292.2 1232.02C290.205 1231.44 288.196 1231.01 286.159 1230.6C285.292 1230.42 284.553 1231.21 283.89 1231.64C282.065 1232.82 279.992 1233.61 278.207 1234.83C276.839 1235.77 273.145 1237.92 271.335 1236.96C270.325 1236.43 267.175 1236.14 267.62 1234.71" stroke="#FE2929" stroke-width="0.671184" stroke-linecap="round"/>
<path d="M357.396 1155.31C356.617 1157.81 355.77 1163.28 352.622 1164.25C348.008 1165.67 343.657 1162.63 339.642 1160.99C337.697 1160.2 336.346 1158.47 334.188 1158.07C330.397 1157.38 324.984 1160.81 322.035 1162.83C318.08 1165.53 315.649 1170.37 311.239 1172.37C301.278 1176.88 298.697 1162.59 290.685 1161.61C288.131 1161.3 286.478 1161.91 284.141 1162.85C283.137 1163.25 280.612 1164.01 280.298 1165.02" stroke="#FE2929" stroke-width="0.671184" stroke-linecap="round"/>
<circle r="7.0328" transform="matrix(-0.954948 -0.296772 -0.296772 0.954948 186.383 1196.56)" fill="#F7D684"/>
<circle r="5.2746" transform="matrix(-0.954948 -0.296772 -0.296772 0.954948 183.051 1278.37)" fill="#F7D684" fill-opacity="0.5"/>
<circle r="2.6373" transform="matrix(-0.954948 -0.296772 -0.296772 0.954948 165.295 1225.9)" fill="#F7D684" fill-opacity="0.5"/>
<defs>
<filter id="filter0_f_105_2394" x="59.3029" y="1372.12" width="101.264" height="49.5274" filterUnits="userSpaceOnUse" color-interpolation-filters="sRGB">
<feFlood flood-opacity="0" result="BackgroundImageFix"/>
<feBlend mode="normal" in="SourceGraphic" in2="BackgroundImageFix" result="shape"/>
<feGaussianBlur stdDeviation="4.3627" result="effect1_foregroundBlur_105_2394"/>
</filter>
<filter id="filter1_f_105_2394" x="93.5946" y="1365.56" width="21.0511" height="19.6024" filterUnits="userSpaceOnUse" color-interpolation-filters="sRGB">
<feFlood flood-opacity="0" result="BackgroundImageFix"/>
<feBlend mode="normal" in="SourceGraphic" in2="BackgroundImageFix" result="shape"/>
<feGaussianBlur stdDeviation="1.34237" result="effect1_foregroundBlur_105_2394"/>
</filter>
<filter id="filter2_f_105_2394" x="95.9969" y="1292.66" width="21.0511" height="19.6024" filterUnits="userSpaceOnUse" color-interpolation-filters="sRGB">
<feFlood flood-opacity="0" result="BackgroundImageFix"/>
<feBlend mode="normal" in="SourceGraphic" in2="BackgroundImageFix" result="shape"/>
<feGaussianBlur stdDeviation="1.34237" result="effect1_foregroundBlur_105_2394"/>
</filter>
<filter id="filter3_f_105_2394" x="149.74" y="1119.72" width="21.0511" height="19.6024" filterUnits="userSpaceOnUse" color-interpolation-filters="sRGB">
<feFlood flood-opacity="0" result="BackgroundImageFix"/>
<feBlend mode="normal" in="SourceGraphic" in2="BackgroundImageFix" result="shape"/>
<feGaussianBlur stdDeviation="1.34237" result="effect1_foregroundBlur_105_2394"/>
</filter>
<filter id="filter4_f_105_2394" x="167.027" y="1040.4" width="21.0511" height="19.6024" filterUnits="userSpaceOnUse" color-interpolation-filters="sRGB">
<feFlood flood-opacity="0" result="BackgroundImageFix"/>
<feBlend mode="normal" in="SourceGraphic" in2="BackgroundImageFix" result="shape"/>
<feGaussianBlur stdDeviation="1.34237" result="effect1_foregroundBlur_105_2394"/>
</filter>
<filter id="filter5_f_105_2394" x="234.654" y="1083.4" width="12.7552" height="12.3944" filterUnits="userSpaceOnUse" color-interpolation-filters="sRGB">
<feFlood flood-opacity="0" result="BackgroundImageFix"/>
<feBlend mode="normal" in="SourceGraphic" in2="BackgroundImageFix" result="shape"/>
<feGaussianBlur stdDeviation="1.34237" result="effect1_foregroundBlur_105_2394"/>
</filter>
<filter id="filter6_f_105_2394" x="364.196" y="595.721" width="15.7494" height="15.242" filterUnits="userSpaceOnUse" color-interpolation-filters="sRGB">
<feFlood flood-opacity="0" result="BackgroundImageFix"/>
<feBlend mode="normal" in="SourceGraphic" in2="BackgroundImageFix" result="shape"/>
<feGaussianBlur stdDeviation="1.34237" result="effect1_foregroundBlur_105_2394"/>
</filter>
<filter id="filter7_f_105_2394" x="1080.52" y="552.746" width="14.89" height="16.0711" filterUnits="userSpaceOnUse" color-interpolation-filters="sRGB">
<feFlood flood-opacity="0" result="BackgroundImageFix"/>
<feBlend mode="normal" in="SourceGraphic" in2="BackgroundImageFix" result="shape"/>
<feGaussianBlur stdDeviation="1.34237" result="effect1_foregroundBlur_105_2394"/>
</filter>
<filter id="filter8_f_105_2394" x="276.913" y="1091.87" width="12.7552" height="12.3944" filterUnits="userSpaceOnUse" color-interpolation-filters="sRGB">
<feFlood flood-opacity="0" result="BackgroundImageFix"/>
<feBlend mode="normal" in="SourceGraphic" in2="BackgroundImageFix" result="shape"/>
<feGaussianBlur stdDeviation="1.34237" result="effect1_foregroundBlur_105_2394"/>
</filter>
<filter id="filter9_f_105_2394" x="423.587" y="607.62" width="15.7494" height="15.242" filterUnits="userSpaceOnUse" color-interpolation-filters="sRGB">
<feFlood flood-opacity="0" result="BackgroundImageFix"/>
<feBlend mode="normal" in="SourceGraphic" in2="BackgroundImageFix" result="shape"/>
<feGaussianBlur stdDeviation="1.34237" result="effect1_foregroundBlur_105_2394"/>
</filter>
<filter id="filter10_f_105_2394" x="1119.74" y="506.582" width="14.89" height="16.0711" filterUnits="userSpaceOnUse" color-interpolation-filters="sRGB">
<feFlood flood-opacity="0" result="BackgroundImageFix"/>
<feBlend mode="normal" in="SourceGraphic" in2="BackgroundImageFix" result="shape"/>
<feGaussianBlur stdDeviation="1.34237" result="effect1_foregroundBlur_105_2394"/>
</filter>
<filter id="filter11_f_105_2394" x="285.92" y="923.597" width="19.3079" height="18.0213" filterUnits="userSpaceOnUse" color-interpolation-filters="sRGB">
<feFlood flood-opacity="0" result="BackgroundImageFix"/>
<feBlend mode="normal" in="SourceGraphic" in2="BackgroundImageFix" result="shape"/>
<feGaussianBlur stdDeviation="1.34237" result="effect1_foregroundBlur_105_2394"/>
</filter>
<filter id="filter12_f_105_2394" x="436.244" y="371.135" width="24.9593" height="23.15" filterUnits="userSpaceOnUse" color-interpolation-filters="sRGB">
<feFlood flood-opacity="0" result="BackgroundImageFix"/>
<feBlend mode="normal" in="SourceGraphic" in2="BackgroundImageFix" result="shape"/>
<feGaussianBlur stdDeviation="1.34237" result="effect1_foregroundBlur_105_2394"/>
</filter>
<filter id="filter13_f_105_2394" x="920.155" y="374.716" width="24.1204" height="24.0225" filterUnits="userSpaceOnUse" color-interpolation-filters="sRGB">
<feFlood flood-opacity="0" result="BackgroundImageFix"/>
<feBlend mode="normal" in="SourceGraphic" in2="BackgroundImageFix" result="shape"/>
<feGaussianBlur stdDeviation="1.34237" result="effect1_foregroundBlur_105_2394"/>
</filter>
<filter id="filter14_f_105_2394" x="343.753" y="1035.18" width="18.4984" height="17.8578" filterUnits="userSpaceOnUse" color-interpolation-filters="sRGB">
<feFlood flood-opacity="0" result="BackgroundImageFix"/>
<feBlend mode="normal" in="SourceGraphic" in2="BackgroundImageFix" result="shape"/>
<feGaussianBlur stdDeviation="1.34237" result="effect1_foregroundBlur_105_2394"/>
</filter>
<filter id="filter15_f_105_2394" x="517.523" y="527.96" width="23.8216" height="22.9207" filterUnits="userSpaceOnUse" color-interpolation-filters="sRGB">
<feFlood flood-opacity="0" result="BackgroundImageFix"/>
<feBlend mode="normal" in="SourceGraphic" in2="BackgroundImageFix" result="shape"/>
<feGaussianBlur stdDeviation="1.34237" result="effect1_foregroundBlur_105_2394"/>
</filter>
<filter id="filter16_f_105_2394" x="1097.26" y="379.967" width="22.2953" height="24.3944" filterUnits="userSpaceOnUse" color-interpolation-filters="sRGB">
<feFlood flood-opacity="0" result="BackgroundImageFix"/>
<feBlend mode="normal" in="SourceGraphic" in2="BackgroundImageFix" result="shape"/>
<feGaussianBlur stdDeviation="1.34237" result="effect1_foregroundBlur_105_2394"/>
</filter>
<filter id="filter17_f_105_2394" x="295.852" y="1006.9" width="15.8724" height="15.3602" filterUnits="userSpaceOnUse" color-interpolation-filters="sRGB">
<feFlood flood-opacity="0" result="BackgroundImageFix"/>
<feBlend mode="normal" in="SourceGraphic" in2="BackgroundImageFix" result="shape"/>
<feGaussianBlur stdDeviation="1.34237" result="effect1_foregroundBlur_105_2394"/>
</filter>
<filter id="filter18_f_105_2394" x="450.204" y="488.206" width="20.1312" height="19.4105" filterUnits="userSpaceOnUse" color-interpolation-filters="sRGB">
<feFlood flood-opacity="0" result="BackgroundImageFix"/>
<feBlend mode="normal" in="SourceGraphic" in2="BackgroundImageFix" result="shape"/>
<feGaussianBlur stdDeviation="1.34237" result="effect1_foregroundBlur_105_2394"/>
</filter>
<filter id="filter19_f_105_2394" x="1029.1" y="422.218" width="18.9095" height="20.5892" filterUnits="userSpaceOnUse" color-interpolation-filters="sRGB">
<feFlood flood-opacity="0" result="BackgroundImageFix"/>
<feBlend mode="normal" in="SourceGraphic" in2="BackgroundImageFix" result="shape"/>
<feGaussianBlur stdDeviation="1.34237" result="effect1_foregroundBlur_105_2394"/>
</filter>
<filter id="filter20_f_105_2394" x="260.452" y="994.078" width="15.8724" height="15.3602" filterUnits="userSpaceOnUse" color-interpolation-filters="sRGB">
<feFlood flood-opacity="0" result="BackgroundImageFix"/>
<feBlend mode="normal" in="SourceGraphic" in2="BackgroundImageFix" result="shape"/>
<feGaussianBlur stdDeviation="1.34237" result="effect1_foregroundBlur_105_2394"/>
</filter>
<filter id="filter21_f_105_2394" x="378.012" y="965.331" width="18.4984" height="17.8578" filterUnits="userSpaceOnUse" color-interpolation-filters="sRGB">
<feFlood flood-opacity="0" result="BackgroundImageFix"/>
<feBlend mode="normal" in="SourceGraphic" in2="BackgroundImageFix" result="shape"/>
<feGaussianBlur stdDeviation="1.34237" result="effect1_foregroundBlur_105_2394"/>
</filter>
<filter id="filter22_f_105_2394" x="485.971" y="1029.7" width="14.0814" height="13.2767" filterUnits="userSpaceOnUse" color-interpolation-filters="sRGB">
<feFlood flood-opacity="0" result="BackgroundImageFix"/>
<feBlend mode="normal" in="SourceGraphic" in2="BackgroundImageFix" result="shape"/>
<feGaussianBlur stdDeviation="1.34237" result="effect1_foregroundBlur_105_2394"/>
</filter>
<filter id="filter23_f_105_2394" x="110.818" y="1446.4" width="21.0511" height="19.6024" filterUnits="userSpaceOnUse" color-interpolation-filters="sRGB">
<feFlood flood-opacity="0" result="BackgroundImageFix"/>
<feBlend mode="normal" in="SourceGraphic" in2="BackgroundImageFix" result="shape"/>
<feGaussianBlur stdDeviation="1.34237" result="effect1_foregroundBlur_105_2394"/>
</filter>
<filter id="filter24_f_105_2394" x="145.715" y="1494.06" width="21.0511" height="19.6024" filterUnits="userSpaceOnUse" color-interpolation-filters="sRGB">
<feFlood flood-opacity="0" result="BackgroundImageFix"/>
<feBlend mode="normal" in="SourceGraphic" in2="BackgroundImageFix" result="shape"/>
<feGaussianBlur stdDeviation="1.34237" result="effect1_foregroundBlur_105_2394"/>
</filter>
<linearGradient id="paint0_linear_105_2394" x1="412.504" y1="1390.19" x2="-42.4234" y2="1565.48" gradientUnits="userSpaceOnUse">
<stop stop-color="#FFFBA1"/>
<stop offset="1" stop-color="#F7D684"/>
<stop offset="1" stop-color="#F3D37A"/>
</linearGradient>
</defs>
</svg>
