<svg width="616" height="520" viewBox="0 0 616 520" fill="none" xmlns="http://www.w3.org/2000/svg">
<path d="M590.751 128.106C671.611 97.0407 783.157 109.498 809.73 128.517L817.641 173.256C812.371 168.579 754.797 159.707 735.505 155.553C684.852 144.647 659.366 145.178 603.168 165.044C558.209 180.938 514.313 224.204 497.985 243.85L416.767 347.814C394.899 376.149 358.967 416.539 320.196 435.014C288.585 450.077 241.477 457.663 220.418 456.985C207.405 453.854 177.203 444.191 160.492 430.589C143.78 416.986 135.455 386.992 133.381 373.695C130.469 365.406 134.805 328.088 136.601 321.703C138.397 315.317 142.292 301.984 148.211 298.199C152.623 295.378 157.492 294.467 166.56 294.639C173.814 294.777 179.877 301.312 182.002 304.562C187.073 309.403 189.304 324.238 185.723 329.054C182.143 333.87 175.571 334.583 172.123 332.424C168.675 330.266 169.049 325.249 169.545 321.211C169.941 317.981 172.642 317.316 173.943 317.387C177.71 318.91 178.777 317.618 178.839 316.782C178.903 313.434 176.092 309.566 174.679 308.051C172.867 305.458 167.699 300.801 161.518 302.917C155.338 305.033 152.069 313.065 151.207 316.816C150.613 318.712 148.819 326.456 146.398 342.263C143.977 358.07 155.529 378.348 161.607 386.511C184.55 405.646 207.651 416.411 258.272 410.952C298.77 406.585 340.291 368.875 355.989 350.566C365.549 346.84 420.974 267.183 447.492 227.82C461.553 207.526 509.891 159.172 590.751 128.106Z" fill="url(#paint0_linear_105_2293)"/>
<path d="M554.246 131.607L551.512 158.598L559.907 158.732L555.685 131.322L556.956 128.68C559.523 129.318 566.17 130.087 572.224 128.053C579.791 125.511 586.572 114.457 587.735 108.997C588.664 104.629 588.295 89.9078 587.994 83.0932L586.589 68.427L585.293 69.4304C582.785 72.6161 580.653 74.6814 576.221 76.454C572.676 77.8721 569.699 78.7395 568.654 78.9959C562.692 83.6115 564.247 82.4074 558.469 94.7574C553.847 104.637 554.871 118.133 555.961 123.647L551.905 124.299C550.565 119.533 545.92 108.535 538.067 102.676C528.251 95.3509 523.618 96.8641 511.427 97.1818C499.236 97.4995 497.948 94.7652 498.952 96.0613C499.754 97.0981 499.988 99.5425 500.005 100.635C499.746 113.687 506.226 121.522 513.141 127.777C518.673 132.78 542.849 132.415 554.246 131.607Z" fill="#44AD16"/>
<g filter="url(#filter0_f_105_2293)">
<path d="M582.488 106.664C586.366 96.9247 586.802 82.0892 580.897 79.7377C574.991 77.3862 564.979 88.409 561.101 98.1485C557.223 107.888 557.257 119.274 563.162 121.625C569.068 123.977 578.61 116.404 582.488 106.664Z" fill="#97D323"/>
</g>
<g filter="url(#filter1_f_105_2293)">
<path d="M531.806 105.198C522.371 100.629 507.605 99.1256 504.835 104.847C502.064 110.568 512.338 121.347 521.773 125.916C531.208 130.485 542.567 131.271 545.338 125.549C548.108 119.828 541.241 109.766 531.806 105.198Z" fill="#97D323"/>
</g>
<g filter="url(#filter2_f_105_2293)">
<path d="M520.267 102.155C515.831 101.346 509.538 102.421 509.047 105.111C508.557 107.801 514.055 111.087 518.491 111.896C522.927 112.705 527.726 111.724 528.216 109.034C528.707 106.344 524.703 102.963 520.267 102.155Z" fill="#D1FD00"/>
</g>
<g filter="url(#filter3_f_105_2293)">
<path d="M574.446 94.848C575.64 90.4997 575.12 84.1367 572.484 83.4127C569.847 82.6886 566.092 87.8776 564.898 92.2259C563.704 96.5742 564.26 101.44 566.897 102.164C569.533 102.888 573.252 99.1963 574.446 94.848Z" fill="#D1FD00"/>
</g>
<path d="M523.637 112.875C529.369 117.612 543.018 127.075 551.753 127.03C560.488 126.986 570.46 109.127 574.354 100.203" stroke="#44AD16" stroke-width="2.01355" stroke-linecap="round"/>
<g filter="url(#filter4_f_105_2293)">
<ellipse rx="26.6857" ry="7.76925" transform="matrix(-0.853889 0.520454 0.520454 0.853889 508.849 205.465)" fill="white"/>
</g>
<g filter="url(#filter5_f_105_2293)">
<ellipse rx="20.2075" ry="7.76925" transform="matrix(-0.755765 -0.654842 -0.654842 0.755765 351.666 385.223)" fill="white"/>
</g>
<g filter="url(#filter6_f_105_2293)">
<ellipse rx="18.7161" ry="7.19582" transform="matrix(-0.755765 -0.654842 -0.654842 0.755765 177.399 422.294)" fill="white"/>
</g>
<g filter="url(#filter7_f_105_2293)">
<path d="M145.198 378.486C148.137 390.322 162.903 416.586 198.451 426.954C242.887 439.914 289.79 430.242 337.297 402.401C375.471 380.028 415.153 320.086 415.153 320.086L520.244 182.178C520.244 182.178 576.853 137.64 588.529 146.239" stroke="#FFF319" stroke-width="3"/>
</g>
<path d="M347.377 367.549L372.985 403.293C374.471 404.371 377.281 406 376.63 403.895C375.817 401.265 378.933 386.179 396.438 382.207C413.943 378.234 419.431 394.118 423.842 399.527C427.371 403.854 429.908 406.249 430.735 406.906C422.753 402.342 416.246 408.36 413.991 411.94C413.001 416.041 408.846 424.194 400.141 424.004C391.436 423.814 381.523 416.456 377.655 412.801C376.137 413.174 373.304 414.204 374.116 415.337C375.13 416.752 373.683 431.178 369.135 436.043C364.587 440.908 356.088 443.248 351.482 442.799C347.098 442.371 340.433 448.915 340.104 449.329C340.107 449.333 340.109 449.336 340.111 449.339C340.236 449.263 340.292 449.56 340.111 449.339C340.109 449.34 340.107 449.342 340.104 449.343C340.087 449.356 340.087 449.35 340.104 449.329C339.776 448.916 338.709 446.869 335.989 438.367C331.668 424.861 333.681 416.457 345.613 408.444C355.159 402.033 363.859 403.762 367.016 405.427L339.644 374.696L347.377 367.549Z" fill="url(#paint1_radial_105_2293)"/>
<g filter="url(#filter8_f_105_2293)">
<ellipse cx="403.146" cy="405.799" rx="10.0555" ry="7.50484" transform="rotate(167.701 403.146 405.799)" fill="#ECEA83"/>
</g>
<g filter="url(#filter9_f_105_2293)">
<ellipse cx="358.229" cy="428.328" rx="10.0555" ry="7.50484" transform="rotate(120.979 358.229 428.328)" fill="#ECEA83"/>
</g>
<path d="M137.722 369.347L101.317 394.006C100.2 395.463 98.4979 398.229 100.619 397.633C103.27 396.89 118.268 400.402 121.779 418.005C125.289 435.609 109.267 440.677 103.744 444.944C99.325 448.358 96.8638 450.831 96.1855 451.641C100.958 443.781 95.1129 437.119 91.5939 434.77C87.5206 433.673 79.4789 429.304 79.898 420.607C80.3171 411.91 87.9334 402.194 91.6891 398.424C91.3559 396.897 90.4011 394.038 89.2477 394.819C87.8059 395.796 73.4233 393.969 68.6798 389.295C63.9362 384.621 61.8206 376.063 62.3906 371.47C62.9331 367.1 56.5676 360.264 56.1616 359.925C56.1584 359.927 56.1553 359.929 56.1522 359.932C56.225 360.058 55.9262 360.107 56.1522 359.932C56.1508 359.929 56.1493 359.927 56.1476 359.924C56.1358 359.907 56.141 359.907 56.1616 359.925C56.5832 359.607 58.6578 358.595 67.2284 356.1C80.8439 352.136 89.192 354.369 96.8883 366.508C103.045 376.219 101.088 384.871 99.3403 387.983L130.782 361.429L137.722 369.347Z" fill="url(#paint2_radial_105_2293)"/>
<g filter="url(#filter10_f_105_2293)">
<ellipse cx="98.0177" cy="424.09" rx="10.0555" ry="7.50484" transform="rotate(-100.791 98.0177 424.09)" fill="#ECEA83"/>
</g>
<g filter="url(#filter11_f_105_2293)">
<ellipse cx="76.6788" cy="378.596" rx="10.0555" ry="7.50484" transform="rotate(-147.513 76.6788 378.596)" fill="#ECEA83"/>
</g>
<defs>
<filter id="filter0_f_105_2293" x="551.709" y="72.7052" width="40.3768" height="56.0638" filterUnits="userSpaceOnUse" color-interpolation-filters="sRGB">
<feFlood flood-opacity="0" result="BackgroundImageFix"/>
<feBlend mode="normal" in="SourceGraphic" in2="BackgroundImageFix" result="shape"/>
<feGaussianBlur stdDeviation="3.35592" result="effect1_foregroundBlur_105_2293"/>
</filter>
<filter id="filter1_f_105_2293" x="497.663" y="94.4207" width="55.0067" height="41.8841" filterUnits="userSpaceOnUse" color-interpolation-filters="sRGB">
<feFlood flood-opacity="0" result="BackgroundImageFix"/>
<feBlend mode="normal" in="SourceGraphic" in2="BackgroundImageFix" result="shape"/>
<feGaussianBlur stdDeviation="3.35592" result="effect1_foregroundBlur_105_2293"/>
</filter>
<filter id="filter2_f_105_2293" x="502.305" y="95.1798" width="32.6639" height="23.7032" filterUnits="userSpaceOnUse" color-interpolation-filters="sRGB">
<feFlood flood-opacity="0" result="BackgroundImageFix"/>
<feBlend mode="normal" in="SourceGraphic" in2="BackgroundImageFix" result="shape"/>
<feGaussianBlur stdDeviation="3.35592" result="effect1_foregroundBlur_105_2293"/>
</filter>
<filter id="filter3_f_105_2293" x="557.587" y="76.6326" width="24.1786" height="32.3346" filterUnits="userSpaceOnUse" color-interpolation-filters="sRGB">
<feFlood flood-opacity="0" result="BackgroundImageFix"/>
<feBlend mode="normal" in="SourceGraphic" in2="BackgroundImageFix" result="shape"/>
<feGaussianBlur stdDeviation="3.35592" result="effect1_foregroundBlur_105_2293"/>
</filter>
<filter id="filter4_f_105_2293" x="455.702" y="160.07" width="106.293" height="90.7908" filterUnits="userSpaceOnUse" color-interpolation-filters="sRGB">
<feFlood flood-opacity="0" result="BackgroundImageFix"/>
<feBlend mode="normal" in="SourceGraphic" in2="BackgroundImageFix" result="shape"/>
<feGaussianBlur stdDeviation="15" result="effect1_foregroundBlur_105_2293"/>
</filter>
<filter id="filter5_f_105_2293" x="305.563" y="340.743" width="92.2041" height="88.9612" filterUnits="userSpaceOnUse" color-interpolation-filters="sRGB">
<feFlood flood-opacity="0" result="BackgroundImageFix"/>
<feBlend mode="normal" in="SourceGraphic" in2="BackgroundImageFix" result="shape"/>
<feGaussianBlur stdDeviation="15" result="effect1_foregroundBlur_105_2293"/>
</filter>
<filter id="filter6_f_105_2293" x="132.485" y="378.882" width="89.8262" height="86.8235" filterUnits="userSpaceOnUse" color-interpolation-filters="sRGB">
<feFlood flood-opacity="0" result="BackgroundImageFix"/>
<feBlend mode="normal" in="SourceGraphic" in2="BackgroundImageFix" result="shape"/>
<feGaussianBlur stdDeviation="15" result="effect1_foregroundBlur_105_2293"/>
</filter>
<filter id="filter7_f_105_2293" x="137.742" y="137.637" width="457.676" height="302.493" filterUnits="userSpaceOnUse" color-interpolation-filters="sRGB">
<feFlood flood-opacity="0" result="BackgroundImageFix"/>
<feBlend mode="normal" in="SourceGraphic" in2="BackgroundImageFix" result="shape"/>
<feGaussianBlur stdDeviation="3" result="effect1_foregroundBlur_105_2293"/>
</filter>
<filter id="filter8_f_105_2293" x="387.821" y="392.788" width="30.6501" height="26.0209" filterUnits="userSpaceOnUse" color-interpolation-filters="sRGB">
<feFlood flood-opacity="0" result="BackgroundImageFix"/>
<feBlend mode="normal" in="SourceGraphic" in2="BackgroundImageFix" result="shape"/>
<feGaussianBlur stdDeviation="2.68474" result="effect1_foregroundBlur_105_2293"/>
</filter>
<filter id="filter9_f_105_2293" x="344.601" y="413.509" width="27.2546" height="29.6376" filterUnits="userSpaceOnUse" color-interpolation-filters="sRGB">
<feFlood flood-opacity="0" result="BackgroundImageFix"/>
<feBlend mode="normal" in="SourceGraphic" in2="BackgroundImageFix" result="shape"/>
<feGaussianBlur stdDeviation="2.68474" result="effect1_foregroundBlur_105_2293"/>
</filter>
<filter id="filter10_f_105_2293" x="85.0378" y="408.742" width="25.9596" height="30.6957" filterUnits="userSpaceOnUse" color-interpolation-filters="sRGB">
<feFlood flood-opacity="0" result="BackgroundImageFix"/>
<feBlend mode="normal" in="SourceGraphic" in2="BackgroundImageFix" result="shape"/>
<feGaussianBlur stdDeviation="2.68474" result="effect1_foregroundBlur_105_2293"/>
</filter>
<filter id="filter11_f_105_2293" x="61.9157" y="364.905" width="29.5261" height="27.3818" filterUnits="userSpaceOnUse" color-interpolation-filters="sRGB">
<feFlood flood-opacity="0" result="BackgroundImageFix"/>
<feBlend mode="normal" in="SourceGraphic" in2="BackgroundImageFix" result="shape"/>
<feGaussianBlur stdDeviation="2.68474" result="effect1_foregroundBlur_105_2293"/>
</filter>
<linearGradient id="paint0_linear_105_2293" x1="414.083" y1="136.2" x2="579.929" y2="493.672" gradientUnits="userSpaceOnUse">
<stop stop-color="#EFFFCC"/>
<stop offset="0.0001" stop-color="#B8E35E" stop-opacity="0.86"/>
<stop offset="1" stop-color="#68B306" stop-opacity="0.77"/>
</linearGradient>
<radialGradient id="paint1_radial_105_2293" cx="0" cy="0" r="1" gradientUnits="userSpaceOnUse" gradientTransform="translate(370.614 408.206) rotate(-125.619) scale(27.4274 33.5106)">
<stop stop-color="#489418"/>
<stop offset="1" stop-color="#D2EC49"/>
</radialGradient>
<radialGradient id="paint2_radial_105_2293" cx="0" cy="0" r="1" gradientUnits="userSpaceOnUse" gradientTransform="translate(96.4683 391.506) rotate(-34.111) scale(27.4274 33.5106)">
<stop stop-color="#489418"/>
<stop offset="1" stop-color="#D2EC49"/>
</radialGradient>
</defs>
</svg>
