<svg width="26" height="26" viewBox="0 0 26 26" fill="none" xmlns="http://www.w3.org/2000/svg">
<path fill-rule="evenodd" clip-rule="evenodd" d="M3.34888 9.88192C6.00202 15.5365 10.7232 20.032 16.5923 22.4679L16.6108 22.4756L17.7447 22.9703C19.1885 23.5999 20.8855 23.1527 21.8112 21.8987L23.7029 19.3362C23.8185 19.1797 23.7887 18.962 23.6351 18.8408L20.3327 16.2331C20.1685 16.1035 19.9271 16.1336 19.8015 16.2995L18.5162 17.9971C18.204 18.4093 17.6403 18.5526 17.1627 18.341C12.7741 16.3971 9.24753 12.9455 7.26147 8.65007C7.04531 8.18259 7.19167 7.63084 7.61288 7.32532L9.34726 6.06731C9.51673 5.94438 9.54758 5.7081 9.41514 5.54742L6.75052 2.31464C6.62667 2.16438 6.40439 2.1352 6.24447 2.2482L3.61214 4.10815C2.32248 5.01939 1.86831 6.69437 2.52659 8.11161L3.34799 9.88003C3.34829 9.88066 3.34858 9.88129 3.34888 9.88192ZM15.7137 24.4705C9.33652 21.821 4.20728 16.9348 1.32444 10.7894L1.32271 10.7857L0.499587 9.01356C-0.597555 6.6515 0.159398 3.85987 2.30883 2.34112L4.94116 0.481173C6.0606 -0.309799 7.61662 -0.105513 8.48352 0.946236L11.1481 4.17902C12.0752 5.30381 11.8593 6.9578 10.673 7.81827L9.67918 8.53913C11.3579 11.7274 14.0186 14.3315 17.276 15.9747L18.0126 15.0019C18.8917 13.8408 20.5816 13.6295 21.7308 14.5369L25.0332 17.1446C26.1081 17.9933 26.3166 19.5169 25.5078 20.6125L23.616 23.1751C22.0732 25.2651 19.2448 26.0103 16.8385 24.961L15.7137 24.4705Z" fill="#05566A"/>
</svg>
